<?xml version="1.0" encoding="UTF-8"?>
<svg xmlns="http://www.w3.org/2000/svg" width="800" height="420" viewBox="0 0 800 420" role="img" aria-label="3CX CFD : Comment automatiser vos flux d'appels entrants">
  <defs>
    <linearGradient id="g" x1="0" y1="0" x2="1" y2="1">
      <stop offset="0%" stop-color="#FFFFFF"/>
      <stop offset="100%" stop-color="#F8F9FB"/>
    </linearGradient>
  </defs>
  <rect width="800" height="420" fill="url(#g)"/>
  <rect x="24" y="24" width="752" height="372" rx="20" fill="#FFF" stroke="#818096" stroke-opacity="0.2"/>
  <g fill="#2D3848">
    <circle cx="320" cy="200" r="18"/>
    <rect x="318" y="172" width="4" height="10"/>
    <rect x="318" y="218" width="4" height="10"/>
    <rect x="292" y="198" width="10" height="4"/>
    <rect x="338" y="198" width="10" height="4"/>
  </g>
<g fill="#E53E3E">
    <circle cx="440" cy="200" r="18"/>
    <rect x="438" y="172" width="4" height="10"/>
    <rect x="438" y="218" width="4" height="10"/>
    <rect x="412" y="198" width="10" height="4"/>
    <rect x="458" y="198" width="10" height="4"/>
  </g>
<line x1="280" y1="200" x2="480" y2="200" stroke="#818096" stroke-width="2" stroke-dasharray="4 6"/>
  <rect x="40" y="320" width="720" height="56" rx="12" fill="#2D3848"/>
  <text x="400" y="356" text-anchor="middle" font-family="Inter, Arial, sans-serif" font-size="22" fill="#FFFFFF">3CX CFD : Comment automatiser vos flux d'appels entrants</text>
</svg>