<?xml version="1.0" encoding="UTF-8"?>
<svg xmlns="http://www.w3.org/2000/svg" width="800" height="420" viewBox="0 0 800 420" role="img" aria-label="Profiter de la fin du cuivre pour remplacer son PABX en entreprise">
  <defs>
    <linearGradient id="g" x1="0" y1="0" x2="1" y2="1">
      <stop offset="0%" stop-color="#FFFFFF"/>
      <stop offset="100%" stop-color="#F8F9FB"/>
    </linearGradient>
  </defs>
  <rect width="800" height="420" fill="url(#g)"/>
  <rect x="24" y="24" width="752" height="372" rx="20" fill="#FFF" stroke="#818096" stroke-opacity="0.2"/>
  <g fill="#818096">
    <circle cx="380" cy="200" r="28"/>
    <circle cx="404" cy="206" r="20"/>
    <circle cx="356" cy="206" r="20"/>
    <rect x="340" y="206" width="80" height="26" rx="13"/>
  </g>
<g fill="#2D3848">
    <circle cx="220" cy="220" r="18"/>
    <rect x="218" y="192" width="4" height="10"/>
    <rect x="218" y="238" width="4" height="10"/>
    <rect x="192" y="218" width="10" height="4"/>
    <rect x="238" y="218" width="10" height="4"/>
  </g>
<rect x="540" y="150" rx="8" ry="8" width="110" height="150" fill="#E53E3E"/>
  <circle cx="595" cy="286" r="3" fill="#FFFFFF"/>
  <rect x="40" y="320" width="720" height="56" rx="12" fill="#2D3848"/>
  <text x="400" y="356" text-anchor="middle" font-family="Inter, Arial, sans-serif" font-size="22" fill="#FFFFFF">Profiter de la fin du cuivre pour remplacer son PABX en entreprise</text>
</svg>